<?xml version="1.0" encoding="UTF-8"?><svg id="Calque_1" xmlns="http://www.w3.org/2000/svg" viewBox="0 0 1142 457"><defs><style>.cls-1,.cls-2{fill:#fff;}.cls-3{letter-spacing:-.02em;}.cls-4{letter-spacing:0em;}.cls-5{letter-spacing:-.03em;}.cls-6{letter-spacing:0em;}.cls-2{font-family:RedHatDisplay-Medium, 'Red Hat Display';font-size:25.88px;}.cls-7{fill:#34c088;}.cls-8{letter-spacing:-.01em;}.cls-9{letter-spacing:0em;}.cls-10{letter-spacing:-.03em;}.cls-11{letter-spacing:-.01em;}.cls-12{opacity:.3;}</style></defs><rect class="cls-7" y="0" width="1142" height="457"/><g><path class="cls-1" d="M627.44,164.8l-3.75-65.06c-1.93-29.42-23.59-52.69-52.69-52.69s-50.07,23.16-52.69,52.69l-3.75,65.06c-.63,10.9,8.04,20.08,18.96,20.08h74.96c10.92,0,19.59-9.18,18.96-20.08Zm-14.06,5.71c-.74,.79-2.37,2.11-4.9,2.11h-20.54c-.63-8.81-7.97-15.76-16.94-15.76s-16.31,6.95-16.94,15.76h-20.54c-2.53,0-4.15-1.32-4.9-2.11-.74-.79-1.97-2.49-1.83-5.01l3.73-64.86c1.08-11.7,5.68-22.27,12.99-29.79,7.34-7.56,16.84-11.55,27.48-11.55,5.43,0,10.61,1.04,15.4,3.1,4.61,1.98,8.77,4.85,12.37,8.53,7.42,7.58,11.92,18.07,12.68,29.56l3.74,65c.15,2.52-1.08,4.22-1.83,5.01Z"/><rect class="cls-1" x="553.27" y="101.91" width="9.85" height="28.12" rx="2.92" ry="2.92"/><rect class="cls-1" x="578.88" y="101.91" width="9.85" height="28.12" rx="2.92" ry="2.92"/></g><g class="cls-12"><path class="cls-1" d="M1249.28,207.99l-14-243.18c-7.22-109.97-88.19-196.97-196.97-196.97s-187.16,86.57-196.97,196.97l-14,243.18c-2.35,40.75,30.06,75.07,70.88,75.07h280.2c40.81,0,73.22-34.33,70.88-75.07Zm-52.57,21.36c-2.78,2.95-8.86,7.89-18.31,7.89h-76.78c-2.35-32.93-29.79-58.92-63.32-58.92s-60.97,25.99-63.32,58.92h-76.77c-9.44,0-15.52-4.94-18.31-7.89-2.78-2.95-7.37-9.3-6.83-18.73l13.96-242.43c4.02-43.72,21.25-83.24,48.54-111.35,27.44-28.25,62.96-43.19,102.73-43.19,20.28,0,39.65,3.9,57.58,11.6,17.22,7.39,32.78,18.12,46.25,31.88,27.72,28.32,44.56,67.56,47.41,110.51l13.99,242.98c.54,9.43-4.04,15.78-6.83,18.73Z"/><rect class="cls-1" x="972.02" y="-27.1" width="36.83" height="105.12" rx="10.93" ry="10.93"/><rect class="cls-1" x="1067.77" y="-27.1" width="36.83" height="105.12" rx="10.93" ry="10.93"/></g><g class="cls-12"><path class="cls-1" d="M340.84,617.57l-14-243.18c-7.22-109.97-88.19-196.97-196.97-196.97S-57.3,263.99-67.11,374.39l-14,243.18c-2.35,40.75,30.06,75.07,70.88,75.07H269.96c40.81,0,73.22-34.33,70.88-75.07Zm-52.57,21.36c-2.78,2.95-8.86,7.89-18.31,7.89h-76.78c-2.35-32.93-29.79-58.92-63.32-58.92s-60.97,25.99-63.32,58.92H-10.24c-9.44,0-15.52-4.94-18.31-7.89-2.78-2.95-7.37-9.3-6.83-18.73l13.96-242.43c4.02-43.72,21.25-83.24,48.54-111.35,27.44-28.25,62.96-43.19,102.73-43.19,20.28,0,39.65,3.9,57.58,11.6,17.22,7.39,32.78,18.12,46.25,31.88,27.72,28.32,44.56,67.56,47.41,110.51l13.99,242.98c.54,9.43-4.04,15.78-6.83,18.73Z"/><rect class="cls-1" x="63.57" y="382.48" width="36.83" height="105.12" rx="10.93" ry="10.93"/><rect class="cls-1" x="159.32" y="382.48" width="36.83" height="105.12" rx="10.93" ry="10.93"/></g><g><path class="cls-1" d="M359.1,206.78h14.7l37.06,48.25v-48.25h14.49v74.56h-13.63l-38.02-49.85v49.85h-14.59v-74.56Z"/><path class="cls-1" d="M435.36,253.65c0-4.05,.76-7.83,2.29-11.34,1.53-3.51,3.62-6.57,6.28-9.16,2.66-2.59,5.8-4.63,9.43-6.12,3.62-1.49,7.49-2.24,11.61-2.24s7.99,.75,11.61,2.24c3.62,1.49,6.76,3.53,9.43,6.12,2.66,2.59,4.76,5.64,6.28,9.16,1.53,3.51,2.29,7.3,2.29,11.34s-.76,7.83-2.29,11.34c-1.53,3.51-3.62,6.55-6.28,9.11-2.66,2.56-5.8,4.58-9.43,6.07-3.62,1.49-7.49,2.24-11.61,2.24s-7.99-.75-11.61-2.24c-3.62-1.49-6.76-3.51-9.43-6.07-2.66-2.56-4.76-5.59-6.28-9.11-1.53-3.51-2.29-7.3-2.29-11.34Zm29.61,16.08c4.26,0,7.88-1.56,10.86-4.69,2.98-3.12,4.47-6.92,4.47-11.4s-1.49-8.38-4.47-11.5c-2.98-3.12-6.6-4.69-10.86-4.69s-7.88,1.56-10.86,4.69c-2.98,3.13-4.47,6.96-4.47,11.5s1.49,8.27,4.47,11.4c2.98,3.13,6.6,4.69,10.86,4.69Z"/><path class="cls-1" d="M508.43,265.68v-27.59h-11.4v-12.25h11.4v-14.17l14.59-3.3v17.47h15.76v12.25h-15.76v24.6c0,2.63,.57,4.47,1.7,5.54,1.14,1.07,3.12,1.6,5.96,1.6,1.35,0,2.63-.09,3.83-.27,1.21-.18,2.52-.51,3.94-1.01v11.93c-1.56,.5-3.44,.91-5.64,1.23-2.2,.32-4.08,.48-5.64,.48-6.18,0-10.85-1.4-14.01-4.21-3.16-2.8-4.74-6.91-4.74-12.3Z"/><path class="cls-1" d="M562.11,283.89l.85-2.02-21.62-56.02h16.08l13.74,37.81,15.76-37.81h15.76l-25.56,59.86c-2.84,6.67-6.14,11.43-9.91,14.27-3.76,2.84-8.66,4.26-14.7,4.26-1.28,0-2.5-.05-3.67-.16-1.17-.11-2.11-.27-2.82-.48v-12.57c.71,.14,1.45,.25,2.24,.32,.78,.07,1.74,.11,2.88,.11,2.63,0,4.85-.64,6.66-1.92,1.81-1.28,3.25-3.16,4.31-5.64Z"/><path class="cls-1" d="M609.4,206.78h35.04c7.46,0,13.53,1.9,18.21,5.7,4.69,3.8,7.03,8.72,7.03,14.75,0,3.27-.82,6.25-2.45,8.95-1.63,2.7-3.87,4.94-6.71,6.71,3.55,1.7,6.39,4.03,8.52,6.98,2.13,2.95,3.2,6.23,3.2,9.85,0,6.46-2.4,11.68-7.19,15.66-4.79,3.98-11.1,5.96-18.91,5.96h-36.75v-74.56Zm34.08,12.78h-18.64v17.68h18.64c3.27,0,5.89-.8,7.88-2.4,1.99-1.6,2.98-3.74,2.98-6.44s-1-4.85-2.98-6.44c-1.99-1.6-4.62-2.4-7.88-2.4Zm1.49,48.99c3.55,0,6.39-.87,8.52-2.61,2.13-1.74,3.2-4.1,3.2-7.08s-1.07-5.15-3.2-6.92c-2.13-1.77-4.97-2.66-8.52-2.66h-20.13v19.28h20.13Z"/><path class="cls-1" d="M679.48,253.65c0-4.05,.76-7.83,2.29-11.34,1.53-3.51,3.62-6.57,6.28-9.16,2.66-2.59,5.8-4.63,9.43-6.12,3.62-1.49,7.49-2.24,11.61-2.24s7.99,.75,11.61,2.24c3.62,1.49,6.76,3.53,9.43,6.12,2.66,2.59,4.76,5.64,6.28,9.16,1.53,3.51,2.29,7.3,2.29,11.34s-.76,7.83-2.29,11.34c-1.53,3.51-3.62,6.55-6.28,9.11s-5.8,4.58-9.43,6.07-7.49,2.24-11.61,2.24-7.99-.75-11.61-2.24-6.76-3.51-9.43-6.07c-2.66-2.56-4.76-5.59-6.28-9.11-1.53-3.51-2.29-7.3-2.29-11.34Zm29.61,16.08c4.26,0,7.88-1.56,10.86-4.69,2.98-3.12,4.47-6.92,4.47-11.4s-1.49-8.38-4.47-11.5c-2.98-3.12-6.6-4.69-10.86-4.69s-7.88,1.56-10.86,4.69c-2.98,3.13-4.47,6.96-4.47,11.5s1.49,8.27,4.47,11.4c2.98,3.13,6.6,4.69,10.86,4.69Z"/><path class="cls-1" d="M752.54,265.68v-27.59h-11.4v-12.25h11.4v-14.17l14.59-3.3v17.47h15.76v12.25h-15.76v24.6c0,2.63,.57,4.47,1.7,5.54,1.14,1.07,3.12,1.6,5.96,1.6,1.35,0,2.63-.09,3.83-.27,1.21-.18,2.52-.51,3.94-1.01v11.93c-1.56,.5-3.44,.91-5.64,1.23-2.2,.32-4.08,.48-5.64,.48-6.18,0-10.85-1.4-14.01-4.21-3.16-2.8-4.74-6.91-4.74-12.3Z"/></g><text class="cls-2" transform="translate(347.92 340.49)"><tspan x="0" y="0">The di</tspan><tspan class="cls-4" x="72.58" y="0">s</tspan><tspan class="cls-3" x="84.75" y="0">c</tspan><tspan x="97.71" y="0">o</tspan><tspan class="cls-10" x="113.26" y="0">r</tspan><tspan x="122.06" y="0">d </tspan><tspan class="cls-9" x="143.17" y="0">b</tspan><tspan class="cls-10" x="158.93" y="0">o</tspan><tspan class="cls-6" x="173.68" y="0">t manager </tspan><tspan class="cls-10" x="299.52" y="0">o</tspan><tspan x="314.27" y="0">f </tspan><tspan class="cls-11" x="329.95" y="0">t</tspan><tspan x="339.73" y="0">omor</tspan><tspan class="cls-5" x="403.16" y="0">r</tspan><tspan class="cls-8" x="411.96" y="0">o</tspan><tspan x="427.25" y="0">w</tspan></text></svg>